c3dfile
version=1
nRows=13
nColumns=46
inDegrees=yes
endheader
time	ground_force1_vx	ground_force1_vy	ground_force1_vz	ground_force1_px	ground_force1_py	ground_force1_pz	ground_torque1_x	ground_torque1_y	ground_torque1_z	ground_force2_vx	ground_force2_vy	ground_force2_vz	ground_force2_px	ground_force2_py	ground_force2_pz	ground_torque2_x	ground_torque2_y	ground_torque2_z	ground_force3_vx	ground_force3_vy	ground_force3_vz	ground_force3_px	ground_force3_py	ground_force3_pz	ground_torque3_x	ground_torque3_y	ground_torque3_z	ground_force4_vx	ground_force4_vy	ground_force4_vz	ground_force4_px	ground_force4_py	ground_force4_pz	ground_torque4_x	ground_torque4_y	ground_torque4_z	ground_force5_vx	ground_force5_vy	ground_force5_vz	ground_force5_px	ground_force5_py	ground_force5_pz	ground_torque5_x	ground_torque5_y	ground_torque5_z
4.067500	-0.000000	-0.000000	0.000000	0.200000	0.000000	0.940000	0.000000	0.000000	-0.000000	-88.144485	967.343994	-231.063690	0.337581	0.000000	0.125573	0.000004	-3.891150	0.000025	-10.398046	289.083008	38.238579	0.136165	0.000000	-0.413682	0.000003	-0.757728	0.000001	-0.000000	-0.000000	0.000000	0.200000	0.000000	-0.920000	0.000000	0.000000	-0.000000	-0.000000	-0.000000	0.000000	0.200000	0.000000	-1.540000	0.000000	0.000000	-0.000000	
4.068000	-0.000000	-0.000000	0.000000	0.200000	0.000000	0.940000	0.000000	0.000000	-0.000000	-87.261665	966.236450	-231.953842	0.337602	0.000000	0.125368	-0.000013	-3.972280	0.000037	-12.489392	322.047485	40.090012	0.137263	0.000000	-0.413365	0.000003	-0.749824	0.000001	-0.000000	-0.000000	0.000000	0.200000	0.000000	-0.920000	0.000000	0.000000	-0.000000	-0.000000	-0.000000	0.000000	0.200000	0.000000	-1.540000	0.000000	0.000000	-0.000000	
4.068500	-0.000000	-0.000000	0.000000	0.200000	0.000000	0.940000	0.000000	0.000000	-0.000000	-87.422791	964.801208	-232.200485	0.337466	0.000000	0.125610	-0.000001	-3.838479	0.000027	-14.902485	350.747589	42.021843	0.137164	0.000000	-0.414575	0.000008	-0.726279	0.000002	-0.000000	-0.000000	0.000000	0.200000	0.000000	-0.920000	0.000000	0.000000	-0.000000	-0.000000	-0.000000	0.000000	0.200000	0.000000	-1.540000	0.000000	0.000000	-0.000000	
4.069000	-0.000000	-0.000000	0.000000	0.200000	0.000000	0.940000	0.000000	0.000000	-0.000000	-87.583923	963.365967	-232.447144	0.337330	0.000000	0.125853	-0.000011	-3.704977	0.000027	-17.315577	379.447693	43.953671	0.137080	0.000000	-0.415602	0.000010	-0.700342	0.000000	-0.000000	-0.000000	0.000000	0.200000	0.000000	-0.920000	0.000000	0.000000	-0.000000	-0.000000	-0.000000	0.000000	0.200000	0.000000	-1.540000	0.000000	0.000000	-0.000000	
4.069500	-0.000000	-0.000000	0.000000	0.200000	0.000000	0.940000	0.000000	0.000000	-0.000000	-87.423645	961.458191	-232.934860	0.337355	0.000000	0.126077	-0.000010	-3.619403	0.000023	-19.969980	404.996765	45.563412	0.137430	0.000000	-0.415959	-0.000000	-0.684670	0.000003	-0.000000	-0.000000	0.000000	0.200000	0.000000	-0.920000	0.000000	0.000000	-0.000000	-0.000000	-0.000000	0.000000	0.200000	0.000000	-1.540000	0.000000	0.000000	-0.000000	
4.070000	-0.000000	-0.000000	0.000000	0.200000	0.000000	0.940000	0.000000	0.000000	-0.000000	-87.263367	959.550415	-233.422577	0.337379	0.000000	0.126303	0.000002	-3.533787	0.000010	-22.624382	430.545807	47.173153	0.137739	0.000000	-0.416274	0.000016	-0.667225	0.000000	-0.000000	-0.000000	0.000000	0.200000	0.000000	-0.920000	0.000000	0.000000	-0.000000	-0.000000	-0.000000	0.000000	0.200000	0.000000	-1.540000	0.000000	0.000000	-0.000000	
4.070500	-0.000000	-0.000000	0.000000	0.200000	0.000000	0.940000	0.000000	0.000000	-0.000000	-86.781250	957.646484	-234.150330	0.337298	0.000000	0.125876	-0.000003	-3.509335	0.000011	-25.761402	450.106323	48.138042	0.138324	0.000000	-0.416475	0.000001	-0.739102	0.000005	-0.000000	-0.000000	0.000000	0.200000	0.000000	-0.920000	0.000000	0.000000	-0.000000	-0.000000	-0.000000	0.000000	0.200000	0.000000	-1.540000	0.000000	0.000000	-0.000000	
4.071000	-0.000000	-0.000000	0.000000	0.200000	0.000000	0.940000	0.000000	0.000000	-0.000000	-86.299133	955.742493	-234.878082	0.337217	0.000000	0.125449	-0.000003	-3.485346	0.000009	-28.898420	469.666809	49.102932	0.138861	0.000000	-0.416659	0.000004	-0.808935	0.000004	-0.000000	-0.000000	0.000000	0.200000	0.000000	-0.920000	0.000000	0.000000	-0.000000	-0.000000	-0.000000	0.000000	0.200000	0.000000	-1.540000	0.000000	0.000000	-0.000000	
4.071500	-0.000000	-0.000000	0.000000	0.200000	0.000000	0.940000	0.000000	0.000000	-0.000000	-86.218567	953.356506	-235.523605	0.337261	0.000000	0.125343	-0.000003	-3.428625	0.000012	-31.552822	481.811859	50.552059	0.138892	0.000000	-0.416741	0.000008	-0.812432	0.000003	-0.000000	-0.000000	0.000000	0.200000	0.000000	-0.920000	0.000000	0.000000	-0.000000	-0.000000	-0.000000	0.000000	0.200000	0.000000	-1.540000	0.000000	0.000000	-0.000000	
4.072000	-0.000000	-0.000000	0.000000	0.200000	0.000000	0.940000	0.000000	0.000000	-0.000000	-86.138008	950.970520	-236.169144	0.337304	0.000000	0.125236	-0.000013	-3.371773	0.000010	-34.207222	493.956909	52.001186	0.138921	0.000000	-0.416818	0.000015	-0.815643	0.000003	-0.000000	-0.000000	0.000000	0.200000	0.000000	-0.920000	0.000000	0.000000	-0.000000	-0.000000	-0.000000	0.000000	0.200000	0.000000	-1.540000	0.000000	0.000000	-0.000000	
4.072500	-0.000000	-0.000000	0.000000	0.200000	0.000000	0.940000	0.000000	0.000000	-0.000000	-86.055756	949.220947	-236.410706	0.337194	0.000000	0.125240	0.000001	-3.274884	0.000010	-35.655079	500.423615	54.096188	0.139007	0.000000	-0.416979	-0.000001	-0.955312	0.000004	-0.000000	-0.000000	0.000000	0.200000	0.000000	-0.920000	0.000000	0.000000	-0.000000	-0.000000	-0.000000	0.000000	0.200000	0.000000	-1.540000	0.000000	0.000000	-0.000000	
4.073000	-0.000000	-0.000000	0.000000	0.200000	0.000000	0.940000	0.000000	0.000000	-0.000000	-85.973495	947.471375	-236.652267	0.337084	0.000000	0.125244	-0.000002	-3.178141	0.000027	-37.102936	506.890320	56.191185	0.139090	0.000000	-0.417136	0.000009	-1.094902	0.000002	-0.000000	-0.000000	0.000000	0.200000	0.000000	-0.920000	0.000000	0.000000	-0.000000	-0.000000	-0.000000	0.000000	0.200000	0.000000	-1.540000	0.000000	0.000000	-0.000000	
4.073500	-0.000000	-0.000000	0.000000	0.200000	0.000000	0.940000	0.000000	0.000000	-0.000000	-85.087723	944.921753	-237.137955	0.337055	0.000000	0.125315	-0.000004	-3.132965	0.000016	-38.631226	507.678009	58.125740	0.139050	0.000000	-0.417569	0.000012	-1.039656	0.000010	-0.000000	-0.000000	0.000000	0.200000	0.000000	-0.920000	0.000000	0.000000	-0.000000	-0.000000	-0.000000	0.000000	0.200000	0.000000	-1.540000	0.000000	0.000000	-0.000000	
